<mxfile modified="2022-09-05T07:12:31.577Z" host="app.diagrams.net" agent="5.0 (Windows NT 10.0; Win64; x64) AppleWebKit/537.36 (KHTML, like Gecko) Chrome/105.0.0.0 Safari/537.36" etag="WuBGBbpZ3ZBDzJSQHvVQ" version="20.2.8" type="github">
  <diagram id="WI9T0HZ2pTsCkuznbFz-" name="Page-1">
    <mxGraphModel dx="1502" dy="2074" grid="1" gridSize="10" guides="1" tooltips="1" connect="1" arrows="1" fold="1" page="1" pageScale="1" pageWidth="827" pageHeight="1169" math="0" shadow="0">
      <root>
        <mxCell id="0" />
        <mxCell id="1" parent="0" />
        <mxCell id="MWuOinmSYjJ5tBn27S7f-32" value="" style="rounded=1;whiteSpace=wrap;html=1;strokeWidth=3;fillColor=none;strokeColor=#999999;perimeterSpacing=0;" vertex="1" parent="1">
          <mxGeometry x="864.5" y="-1000" width="573.87" height="670" as="geometry" />
        </mxCell>
        <mxCell id="MWuOinmSYjJ5tBn27S7f-50" value="" style="rounded=1;fillColor=none;gradientColor=none;arcSize=10;dashed=1;strokeColor=default;strokeWidth=2;fontFamily=Helvetica;fontSize=12;fontColor=default;html=1;perimeterSpacing=0;" vertex="1" parent="1">
          <mxGeometry x="970" y="-470" width="370" height="120" as="geometry" />
        </mxCell>
        <mxCell id="MWuOinmSYjJ5tBn27S7f-3" value="" style="rounded=1;whiteSpace=wrap;html=1;strokeWidth=3;fillColor=none;strokeColor=#999999;perimeterSpacing=0;" vertex="1" parent="1">
          <mxGeometry x="150" y="-1000" width="573.87" height="670" as="geometry" />
        </mxCell>
        <mxCell id="MWuOinmSYjJ5tBn27S7f-12" value="" style="rounded=1;fillColor=none;gradientColor=none;arcSize=10;dashed=1;strokeColor=default;strokeWidth=2;fontFamily=Helvetica;fontSize=12;fontColor=default;html=1;perimeterSpacing=0;" vertex="1" parent="1">
          <mxGeometry x="230" y="-770" width="210" height="390" as="geometry" />
        </mxCell>
        <mxCell id="MWuOinmSYjJ5tBn27S7f-15" value="기관 App" style="outlineConnect=0;dashed=0;verticalLabelPosition=bottom;verticalAlign=top;align=center;html=1;shape=mxgraph.aws3.ec2;fillColor=#F58534;gradientColor=none;rounded=1;strokeColor=default;strokeWidth=3;fontFamily=Helvetica;fontSize=12;fontColor=default;" vertex="1" parent="1">
          <mxGeometry x="1241" y="-694" width="76.5" height="93" as="geometry" />
        </mxCell>
        <mxCell id="MWuOinmSYjJ5tBn27S7f-24" value="RDS" style="outlineConnect=0;dashed=0;verticalLabelPosition=bottom;verticalAlign=top;align=center;html=1;shape=mxgraph.aws3.rds;fillColor=#2E73B8;gradientColor=none;rounded=1;strokeColor=default;strokeWidth=3;fontFamily=Helvetica;fontSize=12;fontColor=default;" vertex="1" parent="1">
          <mxGeometry x="299.5" y="-943" width="72" height="81" as="geometry" />
        </mxCell>
        <mxCell id="MWuOinmSYjJ5tBn27S7f-28" value="" style="endArrow=classic;startArrow=classic;html=1;rounded=0;strokeWidth=1;fontFamily=Helvetica;fontSize=12;fontColor=default;strokeColor=default;dashed=1;entryX=0.5;entryY=0;entryDx=0;entryDy=0;" edge="1" parent="1" source="MWuOinmSYjJ5tBn27S7f-24" target="MWuOinmSYjJ5tBn27S7f-12">
          <mxGeometry width="50" height="50" relative="1" as="geometry">
            <mxPoint x="328" y="-860" as="sourcePoint" />
            <mxPoint x="341.25" y="-987.0000000000002" as="targetPoint" />
          </mxGeometry>
        </mxCell>
        <mxCell id="MWuOinmSYjJ5tBn27S7f-29" value="" style="endArrow=none;startArrow=classic;html=1;rounded=0;strokeWidth=1;fontFamily=Helvetica;fontSize=12;fontColor=default;verticalAlign=middle;startFill=1;endFill=0;" edge="1" parent="1" source="MWuOinmSYjJ5tBn27S7f-16">
          <mxGeometry width="50" height="50" relative="1" as="geometry">
            <mxPoint x="415.25" y="-931" as="sourcePoint" />
            <mxPoint x="596.8849129593809" y="-856" as="targetPoint" />
          </mxGeometry>
        </mxCell>
        <mxCell id="MWuOinmSYjJ5tBn27S7f-55" value="&lt;font style=&quot;font-size: 12px;&quot;&gt;http&lt;/font&gt;" style="edgeLabel;html=1;align=center;verticalAlign=middle;resizable=0;points=[];fontSize=32;fontFamily=Helvetica;fontColor=default;labelBackgroundColor=none;fontStyle=1" vertex="1" connectable="0" parent="MWuOinmSYjJ5tBn27S7f-29">
          <mxGeometry x="0.2687" relative="1" as="geometry">
            <mxPoint as="offset" />
          </mxGeometry>
        </mxCell>
        <mxCell id="MWuOinmSYjJ5tBn27S7f-33" value="ENS Client APP" style="outlineConnect=0;dashed=0;verticalLabelPosition=bottom;verticalAlign=top;align=center;html=1;shape=mxgraph.aws3.ec2;fillColor=#F58534;gradientColor=none;rounded=1;strokeColor=default;strokeWidth=3;fontFamily=Helvetica;fontSize=12;fontColor=default;" vertex="1" parent="1">
          <mxGeometry x="970" y="-692" width="76.5" height="93" as="geometry" />
        </mxCell>
        <mxCell id="MWuOinmSYjJ5tBn27S7f-34" value="RDS" style="outlineConnect=0;dashed=0;verticalLabelPosition=bottom;verticalAlign=top;align=center;html=1;shape=mxgraph.aws3.rds;fillColor=#2E73B8;gradientColor=none;rounded=1;strokeColor=default;strokeWidth=3;fontFamily=Helvetica;fontSize=12;fontColor=default;" vertex="1" parent="1">
          <mxGeometry x="1115.44" y="-856" width="72" height="81" as="geometry" />
        </mxCell>
        <mxCell id="MWuOinmSYjJ5tBn27S7f-38" value="" style="endArrow=classic;startArrow=classic;html=1;rounded=0;dashed=1;strokeColor=default;strokeWidth=1;fontFamily=Helvetica;fontSize=12;fontColor=default;exitX=0.5;exitY=1;exitDx=0;exitDy=0;exitPerimeter=0;entryX=0.5;entryY=0;entryDx=0;entryDy=0;entryPerimeter=0;" edge="1" parent="1" source="MWuOinmSYjJ5tBn27S7f-34" target="MWuOinmSYjJ5tBn27S7f-33">
          <mxGeometry width="50" height="50" relative="1" as="geometry">
            <mxPoint x="900" y="-610" as="sourcePoint" />
            <mxPoint x="950" y="-660" as="targetPoint" />
          </mxGeometry>
        </mxCell>
        <mxCell id="MWuOinmSYjJ5tBn27S7f-39" value="" style="endArrow=classic;startArrow=classic;html=1;rounded=0;dashed=1;strokeColor=default;strokeWidth=1;fontFamily=Helvetica;fontSize=12;fontColor=default;entryX=0.5;entryY=0;entryDx=0;entryDy=0;entryPerimeter=0;exitX=0.5;exitY=1;exitDx=0;exitDy=0;exitPerimeter=0;" edge="1" parent="1" source="MWuOinmSYjJ5tBn27S7f-34" target="MWuOinmSYjJ5tBn27S7f-15">
          <mxGeometry width="50" height="50" relative="1" as="geometry">
            <mxPoint x="900" y="-610" as="sourcePoint" />
            <mxPoint x="950" y="-660" as="targetPoint" />
          </mxGeometry>
        </mxCell>
        <mxCell id="MWuOinmSYjJ5tBn27S7f-8" value="ENS API Server" style="outlineConnect=0;dashed=0;verticalLabelPosition=bottom;verticalAlign=top;align=center;html=1;shape=mxgraph.aws3.ec2;fillColor=#F58534;gradientColor=none;rounded=1;strokeColor=default;strokeWidth=3;fontFamily=Helvetica;fontSize=12;fontColor=default;" vertex="1" parent="1">
          <mxGeometry x="299.5" y="-621" width="76.5" height="93" as="geometry" />
        </mxCell>
        <mxCell id="MWuOinmSYjJ5tBn27S7f-9" value="ENS API Server" style="outlineConnect=0;dashed=0;verticalLabelPosition=bottom;verticalAlign=top;align=center;html=1;shape=mxgraph.aws3.ec2;fillColor=#F58534;gradientColor=none;rounded=1;strokeColor=default;strokeWidth=3;fontFamily=Helvetica;fontSize=12;fontColor=default;" vertex="1" parent="1">
          <mxGeometry x="300" y="-750" width="76.5" height="93" as="geometry" />
        </mxCell>
        <mxCell id="MWuOinmSYjJ5tBn27S7f-16" value="Load Balancer" style="outlineConnect=0;dashed=0;verticalLabelPosition=bottom;verticalAlign=top;align=center;html=1;shape=mxgraph.aws3.application_load_balancer;fillColor=#F58534;gradientColor=none;rounded=1;strokeColor=default;strokeWidth=3;fontFamily=Helvetica;fontSize=12;fontColor=default;" vertex="1" parent="1">
          <mxGeometry x="563" y="-680" width="69" height="72" as="geometry" />
        </mxCell>
        <mxCell id="MWuOinmSYjJ5tBn27S7f-22" value="" style="endArrow=classic;html=1;rounded=0;strokeWidth=1;fontFamily=Helvetica;fontSize=12;fontColor=default;entryX=1;entryY=0.5;entryDx=0;entryDy=0;entryPerimeter=0;exitX=0;exitY=0.5;exitDx=0;exitDy=0;exitPerimeter=0;" edge="1" parent="1" source="MWuOinmSYjJ5tBn27S7f-16" target="MWuOinmSYjJ5tBn27S7f-9">
          <mxGeometry width="50" height="50" relative="1" as="geometry">
            <mxPoint x="540" y="-480" as="sourcePoint" />
            <mxPoint x="590" y="-530" as="targetPoint" />
          </mxGeometry>
        </mxCell>
        <mxCell id="MWuOinmSYjJ5tBn27S7f-23" value="" style="endArrow=classic;html=1;rounded=0;strokeWidth=1;fontFamily=Helvetica;fontSize=12;fontColor=default;entryX=1;entryY=0.5;entryDx=0;entryDy=0;entryPerimeter=0;exitX=0;exitY=0.5;exitDx=0;exitDy=0;exitPerimeter=0;" edge="1" parent="1" source="MWuOinmSYjJ5tBn27S7f-16" target="MWuOinmSYjJ5tBn27S7f-8">
          <mxGeometry width="50" height="50" relative="1" as="geometry">
            <mxPoint x="540" y="-480" as="sourcePoint" />
            <mxPoint x="590" y="-530" as="targetPoint" />
          </mxGeometry>
        </mxCell>
        <mxCell id="MWuOinmSYjJ5tBn27S7f-43" value="" style="endArrow=none;dashed=1;html=1;dashPattern=1 3;strokeWidth=5;rounded=0;strokeColor=default;fontFamily=Helvetica;fontSize=12;fontColor=default;" edge="1" parent="1">
          <mxGeometry width="50" height="50" relative="1" as="geometry">
            <mxPoint x="330" y="-471" as="sourcePoint" />
            <mxPoint x="330" y="-401" as="targetPoint" />
          </mxGeometry>
        </mxCell>
        <mxCell id="MWuOinmSYjJ5tBn27S7f-44" value="" style="endArrow=classic;html=1;rounded=0;strokeWidth=1;fontFamily=Helvetica;fontSize=12;fontColor=default;exitX=0;exitY=0.5;exitDx=0;exitDy=0;exitPerimeter=0;" edge="1" parent="1" source="MWuOinmSYjJ5tBn27S7f-16">
          <mxGeometry width="50" height="50" relative="1" as="geometry">
            <mxPoint x="576" y="-652.0000000000002" as="sourcePoint" />
            <mxPoint x="353" y="-458" as="targetPoint" />
          </mxGeometry>
        </mxCell>
        <mxCell id="MWuOinmSYjJ5tBn27S7f-45" value="ENS Server APP" style="outlineConnect=0;dashed=0;verticalLabelPosition=bottom;verticalAlign=top;align=center;html=1;shape=mxgraph.aws3.ec2;fillColor=#F58534;gradientColor=none;rounded=1;strokeColor=default;strokeWidth=3;fontFamily=Helvetica;fontSize=12;fontColor=default;" vertex="1" parent="1">
          <mxGeometry x="559.25" y="-510" width="76.5" height="93" as="geometry" />
        </mxCell>
        <mxCell id="MWuOinmSYjJ5tBn27S7f-48" value="" style="endArrow=classic;startArrow=classic;html=1;rounded=0;dashed=1;strokeColor=default;strokeWidth=1;fontFamily=Helvetica;fontSize=12;fontColor=default;" edge="1" parent="1" source="MWuOinmSYjJ5tBn27S7f-16" target="MWuOinmSYjJ5tBn27S7f-33">
          <mxGeometry width="50" height="50" relative="1" as="geometry">
            <mxPoint x="900" y="-610" as="sourcePoint" />
            <mxPoint x="950" y="-660" as="targetPoint" />
          </mxGeometry>
        </mxCell>
        <mxCell id="MWuOinmSYjJ5tBn27S7f-49" value="기관이용자1" style="shape=umlActor;verticalLabelPosition=bottom;verticalAlign=top;html=1;outlineConnect=0;rounded=1;strokeColor=default;strokeWidth=3;fontFamily=Helvetica;fontSize=12;fontColor=default;fillColor=none;" vertex="1" parent="1">
          <mxGeometry x="1030" y="-440" width="30" height="60" as="geometry" />
        </mxCell>
        <mxCell id="MWuOinmSYjJ5tBn27S7f-51" value="Cloud Server" style="text;html=1;align=center;verticalAlign=middle;resizable=0;points=[];autosize=1;strokeColor=none;fillColor=none;fontSize=32;fontFamily=Helvetica;fontColor=default;strokeWidth=1;" vertex="1" parent="1">
          <mxGeometry x="320" y="-1070" width="210" height="50" as="geometry" />
        </mxCell>
        <mxCell id="MWuOinmSYjJ5tBn27S7f-52" value="Internal Network" style="text;html=1;align=center;verticalAlign=middle;resizable=0;points=[];autosize=1;strokeColor=none;fillColor=none;fontSize=32;fontFamily=Helvetica;fontColor=default;strokeWidth=1;" vertex="1" parent="1">
          <mxGeometry x="1015" y="-1070" width="260" height="50" as="geometry" />
        </mxCell>
        <mxCell id="MWuOinmSYjJ5tBn27S7f-54" value="ENS Schedule" style="outlineConnect=0;dashed=0;verticalLabelPosition=bottom;verticalAlign=top;align=center;html=1;shape=mxgraph.aws3.ec2;fillColor=#F58534;gradientColor=none;rounded=1;strokeColor=default;strokeWidth=3;fontFamily=Helvetica;fontSize=12;fontColor=default;" vertex="1" parent="1">
          <mxGeometry x="559.25" y="-955" width="76.5" height="93" as="geometry" />
        </mxCell>
        <mxCell id="MWuOinmSYjJ5tBn27S7f-56" value="" style="endArrow=none;dashed=1;html=1;dashPattern=1 3;strokeWidth=5;rounded=0;strokeColor=default;fontFamily=Helvetica;fontSize=12;fontColor=default;" edge="1" parent="1">
          <mxGeometry width="50" height="50" relative="1" as="geometry">
            <mxPoint x="1277" y="-399" as="sourcePoint" />
            <mxPoint x="1173" y="-400" as="targetPoint" />
          </mxGeometry>
        </mxCell>
        <mxCell id="MWuOinmSYjJ5tBn27S7f-57" value="기관이용자2" style="shape=umlActor;verticalLabelPosition=bottom;verticalAlign=top;html=1;outlineConnect=0;rounded=1;strokeColor=default;strokeWidth=3;fontFamily=Helvetica;fontSize=12;fontColor=default;fillColor=none;" vertex="1" parent="1">
          <mxGeometry x="1108" y="-440" width="30" height="60" as="geometry" />
        </mxCell>
        <mxCell id="MWuOinmSYjJ5tBn27S7f-65" value="" style="group" vertex="1" connectable="0" parent="1">
          <mxGeometry x="326" y="-249" width="220" height="120" as="geometry" />
        </mxCell>
        <mxCell id="MWuOinmSYjJ5tBn27S7f-60" value="" style="rounded=1;fillColor=none;gradientColor=none;arcSize=10;dashed=1;strokeColor=default;strokeWidth=2;fontFamily=Helvetica;fontSize=12;fontColor=default;html=1;perimeterSpacing=0;" vertex="1" parent="MWuOinmSYjJ5tBn27S7f-65">
          <mxGeometry width="220" height="120" as="geometry" />
        </mxCell>
        <mxCell id="MWuOinmSYjJ5tBn27S7f-62" value="" style="endArrow=none;dashed=1;html=1;dashPattern=1 3;strokeWidth=5;rounded=0;strokeColor=default;fontFamily=Helvetica;fontSize=12;fontColor=default;" edge="1" parent="MWuOinmSYjJ5tBn27S7f-65">
          <mxGeometry width="50" height="50" relative="1" as="geometry">
            <mxPoint x="200.87" y="71" as="sourcePoint" />
            <mxPoint x="96.87" y="69.99999999999977" as="targetPoint" />
          </mxGeometry>
        </mxCell>
        <mxCell id="MWuOinmSYjJ5tBn27S7f-63" value="관리자" style="shape=umlActor;verticalLabelPosition=bottom;verticalAlign=top;html=1;outlineConnect=0;rounded=1;strokeColor=default;strokeWidth=3;fontFamily=Helvetica;fontSize=12;fontColor=default;fillColor=none;" vertex="1" parent="MWuOinmSYjJ5tBn27S7f-65">
          <mxGeometry x="31.870000000000005" y="30" width="30" height="60" as="geometry" />
        </mxCell>
        <mxCell id="MWuOinmSYjJ5tBn27S7f-66" value="" style="endArrow=classic;html=1;rounded=0;strokeColor=default;strokeWidth=1;fontFamily=Helvetica;fontSize=12;fontColor=default;exitX=0.5;exitY=0;exitDx=0;exitDy=0;entryX=0.5;entryY=1;entryDx=0;entryDy=0;" edge="1" parent="1" source="MWuOinmSYjJ5tBn27S7f-60" target="MWuOinmSYjJ5tBn27S7f-3">
          <mxGeometry width="50" height="50" relative="1" as="geometry">
            <mxPoint x="730" y="-500" as="sourcePoint" />
            <mxPoint x="780" y="-550" as="targetPoint" />
          </mxGeometry>
        </mxCell>
      </root>
    </mxGraphModel>
  </diagram>
</mxfile>
